<?xml version="1.0" encoding="UTF-8" standalone="no"?>
<!DOCTYPE svg PUBLIC "-//W3C//DTD SVG 1.1//EN" "http://www.w3.org/Graphics/SVG/1.1/DTD/svg11.dtd">
<svg width="100%" height="100%" viewBox="0 0 551 509" version="1.1" xmlns="http://www.w3.org/2000/svg" xmlns:xlink="http://www.w3.org/1999/xlink" xml:space="preserve" xmlns:serif="http://www.serif.com/" style="fill-rule:evenodd;clip-rule:evenodd;stroke-linejoin:round;stroke-miterlimit:2;">
    <g transform="matrix(1.08516,0,0,1,-4.56755,331.366)">
        <path d="M29.464,-144.84L60.57,-144.84L60.57,-40.686C60.57,-27.304 57.268,-16.509 50.663,-8.3C44.059,-0.09 35.315,4.014 24.433,4.014C17.589,4.014 10.848,2.025 4.209,-1.953L4.209,-34.935C10.437,-30.596 14.92,-28.426 17.658,-28.426C25.528,-28.426 29.464,-33.706 29.464,-44.266L29.464,-144.84Z" style="fill:white;fill-rule:nonzero;"/>
        <path d="M181.197,0L148.858,0L143.623,-24.194L110.771,-24.194L105.33,0L73.608,0L109.95,-144.84L144.855,-144.84L181.197,0ZM137.668,-50.233C133.014,-71.787 129.524,-92.293 127.197,-111.75L126.786,-111.75C124.322,-91.714 120.866,-71.209 116.418,-50.233L137.668,-50.233Z" style="fill:white;fill-rule:nonzero;"/>
        <path d="M206.862,-144.84L246.181,-144.84C251.793,-113.594 256.207,-86.723 259.424,-64.229L262.812,-86.687C264.181,-95.439 265.652,-103.974 267.226,-112.292L273.283,-144.84L313.424,-144.84L329.028,0L298.23,0L289.914,-99.598L270.717,0L249.671,0L229.55,-99.815L221.542,0L192.079,0L206.862,-144.84Z" style="fill:white;fill-rule:nonzero;"/>
        <path d="M353.564,-144.84L416.495,-144.84L416.495,-114.028L384.671,-114.028L384.671,-87.338L412.286,-87.338L412.286,-57.285L384.671,-57.285L384.671,-30.921L416.701,-30.921L416.701,0L353.564,0L353.564,-144.84Z" style="fill:white;fill-rule:nonzero;"/>
        <path d="M441.237,-2.712L441.237,-36.454C451.092,-30.379 459.373,-27.341 466.081,-27.341C469.982,-27.341 473.062,-28.48 475.32,-30.758C477.579,-33.037 478.708,-36.056 478.708,-39.818C478.708,-42.711 477.801,-45.423 475.987,-47.955C474.174,-50.486 471.043,-53.56 466.594,-57.177C455.849,-65.856 448.064,-73.939 443.239,-81.425C438.414,-88.911 436.001,-97.247 436.001,-106.433C436.001,-118.946 439.731,-129.145 447.191,-137.029C454.651,-144.913 464.301,-148.855 476.141,-148.855C484.902,-148.855 493.594,-146.866 502.217,-142.888L502.217,-110.448C492.978,-115.8 485.484,-118.476 479.735,-118.476C475.902,-118.476 472.873,-117.482 470.649,-115.493C468.425,-113.504 467.313,-110.773 467.313,-107.301C467.313,-101.226 472.48,-94.39 482.814,-86.796C488.974,-82.311 495.219,-76.001 501.55,-67.863C507.881,-59.726 511.046,-50.305 511.046,-39.601C511.046,-27.088 506.905,-16.726 498.624,-8.517C490.343,-0.307 479.837,3.797 467.107,3.797C458.415,3.797 449.792,1.627 441.237,-2.712Z" style="fill:white;fill-rule:nonzero;"/>
    </g>
    <g transform="matrix(1.03737,0,0,1.09721,-97.973,-334.948)">
        <path d="M94.563,309.042L125.931,309.042C144.194,309.042 157.332,312.623 165.343,319.786C173.355,326.949 177.36,336.064 177.36,347.13C177.36,359.08 171.522,368.687 159.844,375.951C173.083,381.179 179.703,391.126 179.703,405.791C179.703,417.537 175.595,427.008 167.38,434.205C159.165,441.402 148.336,445 134.893,445L94.563,445L94.563,309.042ZM125.421,335.113L125.421,364.443C139.204,364.104 146.095,359.317 146.095,350.084C146.095,344.584 144.449,340.748 141.156,338.576C137.863,336.403 132.618,335.249 125.421,335.113ZM125.421,389.089L125.421,418.521C133.229,418.385 139.085,417.18 142.989,414.906C146.893,412.631 148.845,408.88 148.845,403.652C148.845,393.943 141.886,389.089 127.967,389.089L125.421,389.089Z" style="fill:white;fill-rule:nonzero;"/>
        <path d="M245.187,448.361C228.757,448.361 216.23,442.064 207.607,429.469C198.985,416.875 194.674,398.696 194.674,374.933C194.674,353.003 199.002,335.911 207.658,323.656C216.315,311.401 228.383,305.273 243.863,305.273C260.361,305.273 272.973,311.418 281.697,323.707C290.422,335.996 294.784,353.546 294.784,376.359C294.784,399.171 290.489,416.875 281.901,429.469C273.312,442.064 261.074,448.361 245.187,448.361ZM244.067,336.131C232.932,336.131 227.365,349.201 227.365,375.34C227.365,392.178 228.773,403.415 231.591,409.05C234.409,414.685 238.499,417.503 243.863,417.503C249.634,417.503 254.064,414.685 257.153,409.05C260.243,403.415 261.787,392.382 261.787,375.951C261.787,349.405 255.88,336.131 244.067,336.131Z" style="fill:white;fill-rule:nonzero;"/>
        <path d="M317.698,309.042L348.862,309.042L388.071,387.46L386.95,372.794L386.95,309.042L417.808,309.042L417.808,445L386.136,445L347.741,367.804L348.556,384.71L348.556,445L317.698,445L317.698,309.042Z" style="fill:white;fill-rule:nonzero;"/>
        <path d="M447.037,309.042L509.466,309.042L509.466,337.965L477.895,337.965L477.895,363.018L505.29,363.018L505.29,391.228L477.895,391.228L477.895,415.975L509.669,415.975L509.669,445L447.037,445L447.037,309.042Z" style="fill:white;fill-rule:nonzero;"/>
        <path d="M521.076,309.042L555.702,309.042C563.374,328.595 568.941,343.668 572.404,354.259L572.811,354.259C576.274,343.396 581.773,328.324 589.309,309.042L624.75,309.042L588.291,383.488L588.291,445L557.026,445L557.026,383.488L521.076,309.042Z" style="fill:white;fill-rule:nonzero;"/>
    </g>
    <g transform="matrix(15.9084,0,0,15.9084,10080.9,-4507.81)">
        <path d="M-631.801,307.299L-629.937,307.299C-630.605,308.682 -631.058,309.664 -631.297,310.246C-631.246,310.242 -631.162,310.227 -631.045,310.199C-630.912,310.176 -630.799,310.164 -630.705,310.164C-630.072,310.164 -629.578,310.377 -629.222,310.803C-628.867,311.228 -628.689,311.824 -628.689,312.59C-628.689,313.43 -628.92,314.098 -629.381,314.594C-629.842,315.09 -630.459,315.338 -631.232,315.338C-631.959,315.338 -632.549,315.091 -633.002,314.597C-633.455,314.102 -633.681,313.457 -633.681,312.66C-633.681,311.68 -633.234,310.264 -632.34,308.412L-631.801,307.299ZM-631.185,313.803C-630.943,313.803 -630.747,313.698 -630.596,313.489C-630.446,313.28 -630.371,313.008 -630.371,312.672C-630.371,312.348 -630.449,312.075 -630.605,311.854C-630.761,311.634 -630.951,311.523 -631.174,311.523C-631.408,311.523 -631.6,311.633 -631.751,311.852C-631.901,312.07 -631.976,312.352 -631.976,312.695C-631.976,313.027 -631.905,313.295 -631.762,313.498C-631.62,313.701 -631.431,313.803 -631.197,313.803L-631.185,313.803Z" style="fill:white;fill-rule:nonzero;"/>
        <path d="M-627.57,314.342C-627.57,314.076 -627.475,313.848 -627.286,313.656C-627.096,313.465 -626.867,313.369 -626.597,313.369C-626.328,313.369 -626.096,313.464 -625.903,313.653C-625.71,313.843 -625.613,314.068 -625.613,314.33C-625.613,314.592 -625.712,314.821 -625.909,315.019C-626.106,315.216 -626.336,315.314 -626.597,315.314C-626.867,315.314 -627.096,315.22 -627.286,315.03C-627.475,314.841 -627.57,314.611 -627.57,314.342Z" style="fill:white;fill-rule:nonzero;"/>
        <path d="M-622.566,310.211L-624.283,310.211C-624.283,309.625 -624.259,309.166 -624.21,308.834C-624.161,308.502 -624.059,308.208 -623.905,307.952C-623.751,307.696 -623.514,307.491 -623.196,307.337C-622.878,307.183 -622.5,307.105 -622.062,307.105C-621.34,307.105 -620.785,307.295 -620.398,307.674C-620.011,308.053 -619.818,308.6 -619.818,309.314C-619.818,309.682 -619.892,310.077 -620.041,310.501C-620.189,310.925 -620.412,311.391 -620.709,311.898L-621.67,313.539L-620.093,313.539L-620.093,315.133L-624.558,315.133L-622.004,310.768C-621.691,310.244 -621.535,309.768 -621.535,309.338C-621.535,309.123 -621.582,308.947 -621.676,308.81C-621.769,308.674 -621.886,308.605 -622.027,308.605C-622.25,308.605 -622.395,308.694 -622.464,308.872C-622.532,309.05 -622.566,309.4 -622.566,309.924L-622.566,310.211Z" style="fill:white;fill-rule:nonzero;"/>
        <path d="M-616.783,307.299L-614.92,307.299C-615.588,308.682 -616.041,309.664 -616.279,310.246C-616.228,310.242 -616.144,310.227 -616.027,310.199C-615.894,310.176 -615.781,310.164 -615.687,310.164C-615.054,310.164 -614.56,310.377 -614.205,310.803C-613.849,311.228 -613.672,311.824 -613.672,312.59C-613.672,313.43 -613.902,314.098 -614.363,314.594C-614.824,315.09 -615.441,315.338 -616.215,315.338C-616.941,315.338 -617.531,315.091 -617.984,314.597C-618.437,314.102 -618.664,313.457 -618.664,312.66C-618.664,311.68 -618.217,310.264 -617.322,308.412L-616.783,307.299ZM-616.168,313.803C-615.926,313.803 -615.729,313.698 -615.579,313.489C-615.428,313.28 -615.353,313.008 -615.353,312.672C-615.353,312.348 -615.431,312.075 -615.588,311.854C-615.744,311.634 -615.933,311.523 -616.156,311.523C-616.39,311.523 -616.583,311.633 -616.733,311.852C-616.884,312.07 -616.959,312.352 -616.959,312.695C-616.959,313.027 -616.887,313.295 -616.745,313.498C-616.602,313.701 -616.414,313.803 -616.179,313.803L-616.168,313.803Z" style="fill:white;fill-rule:nonzero;"/>
        <path d="M-612.552,314.342C-612.552,314.076 -612.458,313.848 -612.268,313.656C-612.079,313.465 -611.849,313.369 -611.58,313.369C-611.31,313.369 -611.079,313.464 -610.885,313.653C-610.692,313.843 -610.595,314.068 -610.595,314.33C-610.595,314.592 -610.694,314.821 -610.891,315.019C-611.089,315.216 -611.318,315.314 -611.58,315.314C-611.849,315.314 -612.079,315.22 -612.268,315.03C-612.458,314.841 -612.552,314.611 -612.552,314.342Z" style="fill:white;fill-rule:nonzero;"/>
        <path d="M-607.549,310.211L-609.265,310.211C-609.265,309.625 -609.241,309.166 -609.192,308.834C-609.143,308.502 -609.042,308.208 -608.887,307.952C-608.733,307.696 -608.497,307.491 -608.178,307.337C-607.86,307.183 -607.482,307.105 -607.045,307.105C-606.322,307.105 -605.767,307.295 -605.381,307.674C-604.994,308.053 -604.801,308.6 -604.801,309.314C-604.801,309.682 -604.875,310.077 -605.023,310.501C-605.172,310.925 -605.394,311.391 -605.691,311.898L-606.652,313.539L-605.076,313.539L-605.076,315.133L-609.541,315.133L-606.986,310.768C-606.674,310.244 -606.517,309.768 -606.517,309.338C-606.517,309.123 -606.564,308.947 -606.658,308.81C-606.752,308.674 -606.869,308.605 -607.009,308.605C-607.232,308.605 -607.378,308.694 -607.446,308.872C-607.514,309.05 -607.549,309.4 -607.549,309.924L-607.549,310.211Z" style="fill:white;fill-rule:nonzero;"/>
        <path d="M-602.48,307.299L-599.158,307.299L-599.193,308.869L-601.209,308.869L-601.379,310.059C-600.629,310.082 -600.055,310.315 -599.659,310.759C-599.262,311.202 -599.064,311.809 -599.064,312.578C-599.064,313.422 -599.297,314.093 -599.761,314.591C-600.226,315.089 -600.853,315.338 -601.642,315.338C-602.084,315.338 -602.66,315.221 -603.371,314.986L-603.142,313.486C-602.576,313.713 -602.152,313.826 -601.871,313.826C-601.519,313.826 -601.248,313.711 -601.056,313.48C-600.865,313.25 -600.769,312.92 -600.769,312.49C-600.769,312.123 -600.895,311.84 -601.147,311.641C-601.399,311.441 -601.759,311.342 -602.228,311.342C-602.439,311.342 -602.713,311.377 -603.049,311.447L-602.48,307.299Z" style="fill:white;fill-rule:nonzero;"/>
    </g>
</svg>
