<svg xmlns="http://www.w3.org/2000/svg" xml:space="preserve"
    style="fill-rule:evenodd;clip-rule:evenodd;stroke-linejoin:round;stroke-miterlimit:2"
    viewBox="0 0 500 480">
    <path d="M0 39.875c-3.625.458-7.542-1.542-10.292-4.25s-7.666-10.417-9.5-13.792c8.375-1.958 13.625-9.458 10.584-17-3.042-7.541-13.084-7.708-13.084-7.708h-20.333v1.115s1.948-.25 3.104.781c1.156 1.031 1.125 2.5 1.125 2.5v34.562c0 3.375-2.375 3.844-2.375 3.844h-1.437v.969h14.843v-.813s-.687-.156-2-.562c-1.312-.406-1.51-2.488-1.51-2.488V1.292c0-2.042 1.708-2.542 1.708-2.542h3.292c1.542 0 5.667.458 8.208 5.042 2.542 4.583 2.125 8.291-.875 13.083s-10.041 4.417-10.041 4.417v1.958s1.208 1.042 3.833 4.933c3.292 5.766 8.625 10.9 14.333 12.734 5.709 1.833 10.584 0 10.584 0L0 39.875Z" style="fill:#fff" transform="matrix(11.6844 0 0 10.7607 498.049 30.937)"/>

    <style>
    path { fill: #000000; }
    @media (prefers-color-scheme: dark) {
      path { fill: #ffffff; }
    }
  </style>
</svg>